<?xml version="1.0"?>
<svg xmlns="http://www.w3.org/2000/svg" xmlns:xlink="http://www.w3.org/1999/xlink" version="1.1" id="Layer_1" x="0px" y="0px" viewBox="0 0 461 461" style="enable-background:new 0 0 461 461;" xml:space="preserve" width="512px" height="512px" class=""><g><g>
	<path style="fill:#EFEFEF;" d="M74.63,285.05v-81.042l14.918,25.685c9.72,16.735,23.704,30.719,40.44,40.439l25.684,14.918H74.63z" data-original="#EFEFEF" class=""/>
	<path style="fill:#EFEFEF;" d="M74.63,453V285.05h311.74V453H74.63z" data-original="#EFEFEF" class=""/>
	<path style="fill:#194C80" d="M212.086,285.05l22.169-14.671c24.975-16.528,39.885-44.191,39.885-73.999V46.259l11.351,5.236   C346.773,79.766,386.37,141.531,386.37,208.85c0,24.22-4.008,48.048-11.912,70.823l-1.866,5.377L212.086,285.05L212.086,285.05z" data-original="#3E81C8" class="" data-old_color="#3E81C8"/>
	<path style="fill:#787365" d="M185.47,285.05c-61.117,0-110.84-49.723-110.84-110.84c0-14.751,2.329-29.31,6.92-43.271l1.81-5.5   h98.605l-14.818,12.955c9.81-8.09,22.375-12.955,36.053-12.955c39.116,0,70.94,31.824,70.94,70.94   C274.14,245.272,234.363,285.05,185.47,285.05z" data-original="#F5C525" class="" data-old_color="#F5C525"/>
	<path style="fill:#B9BDBF" d="M259.763,153.63c-13.568-17.915-34.185-28.19-56.563-28.19H82.859l5.573-11.491   c11.199-23.09,28.566-42.626,50.225-56.496c22.262-14.257,48.031-21.792,74.523-21.792c18.994,0,37.677,3.069,55.529,9.124   l5.431,1.842v125.987L259.763,153.63z" data-original="#EB7830" class="active-path" data-old_color="#EB7830"/>
	<path style="fill:#EFEFEF;" d="M371.081,137.717C343.035,75.72,281.055,35.66,213.18,35.66c-52.258,0-99.553,28.985-123.428,75.645   L74.63,107.66V8h311.74v126.42L371.081,137.717z" data-original="#EFEFEF" class=""/>
	<g>
		<path style="fill:#231F20" d="M386.37,0H74.63c-4.42,0-8,3.58-8,8v445c0,4.41,3.58,8,8,8h311.74c4.42,0,8-3.59,8-8V8    C394.37,3.58,390.79,0,386.37,0z M160.66,133.44c-13.59,11.88-22.21,29.32-22.21,48.75c0,29.45,23.96,53.4,53.4,53.4    c24.44,0,44.32-19.88,44.32-44.32c0-20.43-16.62-37.06-37.05-37.06c-17.23,0-31.25,14.02-31.25,31.25c0,4.42,3.58,8,8,8    s8-3.58,8-8c0-8.41,6.84-15.25,15.25-15.25c11.61,0,21.05,9.45,21.05,21.06c0,15.62-12.7,28.32-28.32,28.32    c-20.62,0-37.4-16.78-37.4-37.4c0-26.88,21.87-48.75,48.75-48.75c34.71,0,62.94,28.23,62.94,62.94    c0,44.48-36.19,80.67-80.67,80.67c-56.71,0-102.84-46.13-102.84-102.84c0-14.23,2.3-27.94,6.52-40.77L160.66,133.44L160.66,133.44    z M95.63,117.44c21.16-43.63,65.9-73.78,117.55-73.78c18.52,0,36.33,3.06,52.96,8.7v96.44c-14.42-19.04-37.26-31.36-62.94-31.36    H95.63z M82.63,233.71c10.42,17.94,25.4,32.92,43.34,43.34H82.63V233.71z M378.37,445H82.63V293.05h277.96    c-32.42,73.14-105.7,124.29-190.71,124.29c-4.42,0-8,3.58-8,8c0,4.41,3.58,8,8,8c59.96,0,116.34-23.36,158.74-65.76    c21.84-21.83,38.61-47.38,49.75-75.22V445z M366.9,277.05H238.67c26.17-17.32,43.47-47.01,43.47-80.67V58.76    c56.75,26.18,96.23,83.61,96.23,150.09C378.37,232.72,374.32,255.67,366.9,277.05z M378.37,134.42    C349.92,71.53,286.58,27.66,213.18,27.66c-56.86,0-106.27,32.55-130.55,80V16h295.74V134.42z" data-original="#231F20" class="" data-old_color="#231F20"/>
	</g>
</g></g> </svg>
