<?xml version="1.0" encoding="iso-8859-1"?>
<!-- Generator: Adobe Illustrator 19.0.0, SVG Export Plug-In . SVG Version: 6.00 Build 0)  -->
<svg version="1.1" id="Capa_1" xmlns="http://www.w3.org/2000/svg" xmlns:xlink="http://www.w3.org/1999/xlink" x="0px" y="0px"
	 viewBox="0 0 469.334 469.334" style="enable-background:new 0 0 469.334 469.334;" xml:space="preserve">
<g>
	<g>
		<g>
			<circle cx="234.667" cy="90.667" r="48"/>
			<path d="M447.968,330.61c0-3.938-2.167-7.552-5.635-9.406c-3.467-1.853-7.685-1.645-10.945,0.531l-7.48,4.988
				c-18.445-28.086-37.952-52.964-48.866-66.34c-3.729-4.572-10.447-5.28-14.997-1.521c-4.573,3.719-5.25,10.438-1.521,14.999
				c19.665,24.105,35.323,45.553,47.829,64.566l-6.958,4.641c-3.104,2.073-4.905,5.615-4.738,9.342
				c0.167,3.729,2.259,7.094,5.54,8.885l29.163,15.952c19.771,38.147,21.786,60.522,15.119,67.184
				c-7.561,7.551-35.328,4.936-88.642-27.217c-21.268-12.826-44.208-29.118-67.835-47.671v-49.543h21.333
				c5.896,0,10.667-4.771,10.667-10.667v-38.119c41.694-44.049,77.661-88.464,104.043-128.62l7.344,4.897
				c1.781,1.188,3.842,1.792,5.915,1.792c1.729,0,3.458-0.417,5.03-1.26c3.469-1.854,5.635-5.469,5.635-9.406v-36.225
				c23.816-45.335,27.784-76.509,11.591-92.697c-31.744-31.717-115.602,21.677-162.78,56.332c-4.749,3.478-5.77,10.155-2.281,14.905
				c3.458,4.729,10.155,5.75,14.904,2.281c76.641-56.279,123.777-69.758,135.077-58.435c6.467,6.469,5.342,27.859-15.212,67.251
				l-29.07,15.901c-3.281,1.792-5.374,5.156-5.54,8.885c-0.167,3.729,1.634,7.271,4.738,9.344l6.9,4.6
				c-22.389,34.122-51.991,71.505-86.293,109.152v-41.413c0-9.854-4.292-18.917-11.479-24.24
				c-44.083-32.625-103.615-32.625-147.719,0c-7.177,5.323-11.469,14.385-11.469,24.24v41.398
				c-34.298-37.639-63.895-75.016-86.283-109.131l6.909-4.607c3.103-2.073,4.905-5.615,4.738-9.344
				c-0.167-3.729-2.26-7.094-5.54-8.885L40.066,92.02C19.516,52.635,18.39,31.247,24.857,24.778
				c11.352-11.333,58.48,2.167,135.186,58.516c4.738,3.479,11.436,2.458,14.905-2.281c3.488-4.74,2.467-11.415-2.281-14.904
				C125.444,31.403,41.478-22.053,9.775,9.695c-16.198,16.191-12.223,47.376,11.611,92.73v36.193c0,3.938,2.167,7.552,5.634,9.406
				c1.573,0.844,3.302,1.26,5.031,1.26c2.072,0,4.134-0.604,5.915-1.792l7.333-4.891c26.379,40.148,62.345,84.553,104.034,128.595
				v38.137c0,5.896,4.771,10.667,10.667,10.667h21.333v49.565c-23.622,18.549-46.556,34.841-67.82,47.665
				c-53.365,32.176-81.129,34.728-88.638,27.219c-6.664-6.665-4.652-29.047,15.129-67.207l29.154-15.936
				c3.28-1.792,5.374-5.167,5.54-8.896c0.167-3.728-1.635-7.27-4.738-9.342l-6.951-4.634c12.447-18.922,28.008-40.251,47.546-64.217
				c3.719-4.563,3.031-11.281-1.53-15.01c-4.563-3.707-11.27-2.999-15.008,1.531c-10.852,13.315-30.223,38.049-48.568,65.987
				l-7.483-4.99c-3.26-2.176-7.488-2.384-10.947-0.531c-3.467,1.854-5.634,5.469-5.634,9.406v36.734
				c-19.5,37.306-30.092,73.693-11.591,92.188c6.54,6.542,15.508,9.802,26.87,9.802c21.121,0,50.51-11.302,87.867-33.832
				c17.996-10.859,37.115-24.06,56.802-38.944v40.776c0,5.896,4.771,10.667,10.667,10.667h85.333
				c5.896,0,10.667-4.771,10.667-10.667v-40.802c19.693,14.887,38.815,28.091,56.815,38.952
				c37.359,22.54,66.75,33.841,87.883,33.831c11.352,0,20.32-3.259,26.861-9.801c18.501-18.492,7.919-54.866-11.591-92.181V330.61z"
				/>
		</g>
	</g>
</g>
<g>
</g>
<g>
</g>
<g>
</g>
<g>
</g>
<g>
</g>
<g>
</g>
<g>
</g>
<g>
</g>
<g>
</g>
<g>
</g>
<g>
</g>
<g>
</g>
<g>
</g>
<g>
</g>
<g>
</g>
</svg>
